<svg width="232" height="190" viewBox="0 0 232 190" fill="none" xmlns="http://www.w3.org/2000/svg">
<g clip-path="url(#clip0)">
<path d="M57.2645 173.369L57.7364 183.304L57.7364 183.304C57.816 184.983 57.2246 186.625 56.0922 187.868C54.9599 189.112 53.3794 189.855 51.6983 189.935L51.4923 189.945L50.7197 173.68L57.2645 173.369Z" fill="#2F2E41"/>
<path d="M198.679 156.581C193.941 165.815 187.933 174.745 180.33 182.827C180.161 183.009 179.991 183.187 179.818 183.368L161.806 174.851C161.916 174.668 162.037 174.463 162.167 174.239C169.904 161.016 216.612 80.3588 215.136 62.0908C215.308 63.5975 220.845 113.424 198.679 156.581Z" fill="#E6E6E6"/>
<path d="M183.805 184.47C183.553 184.613 183.294 184.753 183.034 184.888L169.521 178.499C169.71 178.365 169.93 178.207 170.183 178.029C174.323 175.061 186.633 166.154 198.679 156.581C211.623 146.295 224.264 135.242 226.142 129.966C225.76 131.176 213.912 167.951 183.805 184.47Z" fill="#E6E6E6"/>
<path d="M22.478 189.548C33.9953 189.548 43.3319 180.223 43.3319 168.72C43.3319 157.217 33.9953 147.892 22.478 147.892C10.9606 147.892 1.62402 157.217 1.62402 168.72C1.62402 180.223 10.9606 189.548 22.478 189.548Z" fill="#6C63FF"/>
<path d="M30.8311 159.98H14.1243C13.3861 159.98 12.6783 160.274 12.1563 160.795C11.6343 161.316 11.3407 162.023 11.3398 162.761V174.679C11.3407 175.416 11.6343 176.123 12.1563 176.645C12.6783 177.166 13.3861 177.459 14.1243 177.46H30.8311C31.5693 177.459 32.2771 177.166 32.7991 176.645C33.3211 176.123 33.6148 175.416 33.6156 174.679V162.761C33.6148 162.023 33.3211 161.316 32.7991 160.795C32.2771 160.274 31.5693 159.98 30.8311 159.98ZM30.8311 161.569C30.9308 161.569 31.0301 161.582 31.1266 161.607L22.4796 168.496L13.8832 161.593C13.9625 161.577 14.0433 161.569 14.1243 161.569H30.8311ZM30.8311 175.871H14.1243C13.8079 175.871 13.5046 175.745 13.2809 175.522C13.0572 175.298 12.9313 174.995 12.931 174.679V162.868L21.9792 170.134C22.1201 170.247 22.2954 170.309 22.4762 170.309C22.657 170.309 22.8325 170.248 22.9738 170.136L32.0245 162.925V174.679C32.0241 174.995 31.8983 175.298 31.6745 175.522C31.4508 175.745 31.1475 175.871 30.8311 175.871Z" fill="white"/>
<path d="M102.958 138.65L107.624 138.688C108.097 138.692 108.564 138.593 108.994 138.398C109.424 138.203 109.806 137.916 110.113 137.559C110.421 137.201 110.647 136.781 110.775 136.327C110.904 135.873 110.931 135.397 110.856 134.931C110.776 134.43 110.578 133.955 110.28 133.544C109.982 133.133 109.592 132.797 109.14 132.565C108.689 132.332 108.189 132.208 107.681 132.203C107.172 132.199 106.67 132.314 106.215 132.538L101.814 134.707L86.7638 138.059L80.316 131.475L76.6123 137.567L85.3131 144.281L102.958 138.65Z" fill="#FFB8B8"/>
<path d="M102.084 186.798L96.5861 187.854C92.831 176.032 88.7625 164.836 88.7627 156.177C83.4486 162.085 76.8586 165.464 69.0986 166.525L69.9444 153.432L76.2876 150.053L85.9959 145.578C86.8459 145.186 87.7629 144.96 88.6978 144.911C90.5153 144.815 92.304 145.394 93.7194 146.537C95.1349 147.68 96.0771 149.305 96.3647 151.1L102.084 186.798Z" fill="#2F2E41"/>
<path d="M75.7588 164.941L73.5677 166.605C72.6256 167.32 71.5125 167.776 70.339 167.929C69.1656 168.082 67.9725 167.926 66.8783 167.476C60.6024 162.777 56.1439 164.163 52.1029 171.255C47.2559 165.791 46.06 157.9 50.3858 149.737L74.3845 150.264L79.2476 148.786L75.7588 164.941Z" fill="#2F2E41"/>
<path d="M67.7671 189.409C66.3919 189.831 64.9117 189.757 63.5858 189.199C62.26 188.641 61.1729 187.635 60.5152 186.357C58.3584 184.46 56.5387 181.744 54.9604 178.44C53.8279 176.017 52.8555 173.523 52.0494 170.973C50.9572 167.604 52.7834 163.923 56.1823 162.915C56.2834 162.885 56.3857 162.857 56.4892 162.831C61.0266 161.667 65.6861 164.281 67.2371 168.696L71.7471 181.533C72.0135 182.292 72.1278 183.095 72.0833 183.897C72.0389 184.7 71.8366 185.486 71.4881 186.21C71.1396 186.935 70.6516 187.583 70.0521 188.119C69.4525 188.655 68.7531 189.068 67.9938 189.334C67.9187 189.361 67.8431 189.386 67.7671 189.409Z" fill="#2F2E41"/>
<path opacity="0.2" d="M54.1914 176.979C54.1914 176.979 59.4774 182.892 60.5347 186.27L54.1914 176.979Z" fill="black"/>
<path d="M33.6902 149.073L31.9211 153.385C31.7421 153.822 31.6605 154.292 31.6821 154.763C31.7037 155.234 31.8279 155.695 32.0461 156.113C32.2643 156.531 32.5712 156.897 32.9454 157.184C33.3196 157.472 33.7521 157.675 34.2127 157.778C34.7085 157.889 35.2235 157.883 35.7163 157.759C36.2092 157.636 36.666 157.398 37.0502 157.066C37.4343 156.734 37.735 156.316 37.9281 155.846C38.1211 155.377 38.2011 154.869 38.1617 154.363L37.7805 149.477L40.2558 134.276L48.7716 130.743L44.4842 125.045L35.0106 130.619L33.6902 149.073Z" fill="#FFB8B8"/>
<path d="M75.9704 149.737C69.8951 159.929 57.784 163.875 47.4108 155.894C49.2355 149.906 55.1269 133.357 51.3209 132.723C43.24 136.108 43.2283 128.161 41.7168 124.184L60.1122 117.426L70.05 120.171L72.0871 120.893C73.4129 121.363 74.5628 122.227 75.3821 123.369C76.2015 124.511 76.6511 125.877 76.6704 127.282C72.4959 133.305 69.4056 139.73 75.9704 149.737Z" fill="#6C63FF"/>
<path d="M78.2957 141.501L71.001 135.482L73.4326 121.439L83.3703 131.998L78.2957 141.501Z" fill="#6C63FF"/>
<path d="M199.338 45.0262H198.296V16.5062C198.296 12.1285 196.555 7.93006 193.455 4.83455C190.356 1.73904 186.152 0 181.769 0H121.27C116.887 0 112.683 1.73904 109.584 4.83455C106.484 7.93006 104.743 12.1285 104.743 16.5062V172.97C104.743 177.347 106.484 181.546 109.584 184.641C112.683 187.737 116.887 189.476 121.27 189.476H181.769C186.152 189.476 190.356 187.737 193.455 184.641C196.554 181.546 198.295 177.347 198.295 172.97V65.3272H199.338L199.338 45.0262Z" fill="#3F3D56"/>
<path d="M182.436 4.29395H174.539C174.902 5.18328 175.041 6.14821 174.943 7.10373C174.845 8.05924 174.513 8.97601 173.976 9.77324C173.44 10.5705 172.715 11.2237 171.867 11.6754C171.018 12.127 170.071 12.3632 169.109 12.3632H134.45C133.489 12.3632 132.542 12.1269 131.693 11.6753C130.845 11.2236 130.12 10.5705 129.584 9.77335C129.048 8.97623 128.716 8.0596 128.618 7.10421C128.519 6.14883 128.658 5.184 129.021 4.29474H121.644C118.371 4.29474 115.231 5.59347 112.917 7.90524C110.602 10.217 109.302 13.3524 109.302 16.6218V172.855C109.302 176.124 110.602 179.26 112.917 181.571C115.231 183.883 118.371 185.182 121.644 185.182H182.433C185.707 185.182 188.846 183.883 191.161 181.571C193.475 179.26 194.776 176.124 194.776 172.855V172.855V16.621C194.776 13.3517 193.475 10.2162 191.161 7.90445C188.846 5.59268 185.707 4.29395 182.433 4.29395H182.436L182.436 4.29395Z" fill="white"/>
<path d="M152.145 176.451C155.888 176.451 158.922 173.42 158.922 169.682C158.922 165.943 155.888 162.913 152.145 162.913C148.402 162.913 145.367 165.943 145.367 169.682C145.367 173.42 148.402 176.451 152.145 176.451Z" fill="#E6E6E6"/>
<path d="M124.65 107.081C124.01 107.081 123.488 107.676 123.488 108.406C123.488 109.136 124.01 109.731 124.65 109.731H179.429C180.07 109.731 180.591 109.136 180.591 108.406C180.591 107.676 180.07 107.081 179.429 107.081H124.65Z" fill="#E6E6E6"/>
<path d="M124.65 138.323C124.01 138.323 123.488 138.918 123.488 139.648C123.488 140.378 124.01 140.973 124.65 140.973H179.429C180.07 140.973 180.591 140.378 180.591 139.648C180.591 138.918 180.07 138.323 179.429 138.323H124.65Z" fill="#E6E6E6"/>
<path d="M124.65 115.029C124.01 115.029 123.488 115.623 123.488 116.354C123.488 117.084 124.01 117.678 124.65 117.678H148.222C148.862 117.678 149.384 117.084 149.384 116.354C149.384 115.623 148.862 115.029 148.222 115.029H124.65Z" fill="#E6E6E6"/>
<path d="M124.65 122.605C124.01 122.605 123.488 123.199 123.488 123.93C123.488 124.66 124.01 125.254 124.65 125.254H179.429C180.07 125.254 180.591 124.66 180.591 123.93C180.591 123.199 180.07 122.605 179.429 122.605H124.65Z" fill="#E6E6E6"/>
<path d="M124.65 130.553C124.01 130.553 123.488 131.147 123.488 131.877C123.488 132.608 124.01 133.202 124.65 133.202H148.222C148.862 133.202 149.384 132.608 149.384 131.877C149.384 131.147 148.862 130.553 148.222 130.553H124.65Z" fill="#E6E6E6"/>
<path d="M134.991 46.7659H169.091C169.468 46.7663 169.829 46.916 170.095 47.182C170.361 47.448 170.511 47.8087 170.512 48.1849V83.6542C170.511 84.0304 170.361 84.3911 170.095 84.6571C169.829 84.9231 169.468 85.0728 169.091 85.0732H134.991C134.614 85.0728 134.253 84.9231 133.987 84.6571C133.721 84.3911 133.571 84.0304 133.57 83.6542V48.1849C133.571 47.8087 133.721 47.448 133.987 47.182C134.253 46.916 134.614 46.7663 134.991 46.7659Z" fill="#6C63FF"/>
<path d="M161.824 77.7589C161.951 77.7591 162.077 77.7344 162.194 77.6861C162.311 77.6379 162.418 77.567 162.508 77.4776C162.597 77.3881 162.669 77.2819 162.717 77.1649C162.766 77.048 162.791 76.9226 162.791 76.7959C162.791 76.6693 162.766 76.5439 162.718 76.4269C162.669 76.3098 162.598 76.2035 162.508 76.114C162.419 76.0245 162.312 75.9535 162.195 75.9051C162.078 75.8567 161.952 75.8319 161.825 75.832H142.257C142.13 75.8318 142.004 75.8565 141.887 75.9048C141.77 75.953 141.663 76.0239 141.573 76.1133C141.484 76.2028 141.412 76.309 141.364 76.426C141.315 76.5429 141.29 76.6683 141.29 76.795C141.29 76.9216 141.315 77.047 141.363 77.164C141.412 77.2811 141.483 77.3874 141.573 77.4769C141.662 77.5664 141.769 77.6374 141.886 77.6858C142.003 77.7342 142.129 77.759 142.256 77.7589H161.824Z" fill="white"/>
<path d="M161.825 72.0827C162.081 72.0827 162.326 71.9812 162.507 71.8005C162.688 71.6199 162.789 71.3748 162.789 71.1193C162.789 70.8638 162.688 70.6187 162.507 70.4381C162.326 70.2574 162.081 70.1559 161.825 70.1559H142.257C142.001 70.1558 141.756 70.2571 141.575 70.4377C141.394 70.6183 141.292 70.8633 141.292 71.1188C141.292 71.3743 141.393 71.6194 141.574 71.8002C141.755 71.981 142 72.0826 142.256 72.0827H161.825Z" fill="white"/>
<path d="M152.041 54.0803C153.241 54.0803 154.415 54.436 155.414 55.1023C156.412 55.7687 157.191 56.7158 157.65 57.8239C158.11 58.9319 158.23 60.1513 157.996 61.3276C157.761 62.5039 157.183 63.5845 156.334 64.4326C155.485 65.2807 154.403 65.8582 153.225 66.0922C152.047 66.3262 150.826 66.2061 149.717 65.7471C148.607 65.2881 147.659 64.5109 146.992 63.5136C146.325 62.5164 145.969 61.3439 145.969 60.1445C145.971 58.5368 146.611 56.9954 147.749 55.8585C148.887 54.7216 150.431 54.0821 152.041 54.0803Z" fill="white"/>
<path d="M74.5696 115.588H56.544C56.1733 115.587 55.8178 115.44 55.5556 115.178C55.2934 114.916 55.1459 114.561 55.1455 114.191V106.431C55.1455 103.673 56.2424 101.028 58.1949 99.0781C60.1474 97.128 62.7956 96.0325 65.5568 96.0325C68.3181 96.0325 70.9662 97.128 72.9187 99.0781C74.8712 101.028 75.9682 103.673 75.9682 106.431V114.191C75.9677 114.561 75.8203 114.916 75.5581 115.178C75.2959 115.44 74.9404 115.587 74.5696 115.588Z" fill="#2F2E41"/>
<path d="M74.2444 111.153C76.2665 107.459 74.9071 102.827 71.208 100.807C67.5089 98.7873 62.8709 100.145 60.8488 103.84C58.8267 107.534 60.1862 112.166 63.8853 114.186C67.5844 116.205 72.2223 114.848 74.2444 111.153Z" fill="#FFB6B6"/>
<path d="M78.4309 107.207H67.4087L67.2956 105.626L66.7305 107.207H65.0333L64.8093 104.074L63.6892 107.207H60.4053V107.052C60.4077 104.871 61.2762 102.78 62.8202 101.238C64.3641 99.6959 66.4575 98.8285 68.641 98.826H70.195C72.3785 98.8285 74.4719 99.6959 76.0159 101.238C77.5599 102.78 78.4284 104.871 78.4309 107.052V107.207Z" fill="#2F2E41"/>
<path d="M67.3185 117.036C67.2355 117.036 67.1527 117.029 67.0709 117.014L59 115.592V102.27H67.8846L67.6646 102.526C64.6042 106.091 66.9099 111.871 68.5566 114.999C68.678 115.228 68.7321 115.487 68.7127 115.745C68.6933 116.004 68.6013 116.252 68.4471 116.46C68.318 116.639 68.1484 116.784 67.9522 116.884C67.756 116.984 67.5388 117.036 67.3185 117.036Z" fill="#2F2E41"/>
<path d="M94.1895 182.811L104.147 182.811H104.148C105.831 182.811 107.445 183.479 108.635 184.667C109.825 185.856 110.493 187.468 110.493 189.149V189.355L94.1898 189.355L94.1895 182.811Z" fill="#2F2E41"/>
<path d="M231.739 190H0.260674C0.191539 190 0.125235 189.973 0.0763495 189.924C0.0274636 189.875 0 189.809 0 189.74C0 189.671 0.0274636 189.604 0.0763495 189.555C0.125235 189.507 0.191539 189.479 0.260674 189.479H231.739C231.808 189.479 231.875 189.507 231.924 189.555C231.973 189.604 232 189.671 232 189.74C232 189.809 231.973 189.875 231.924 189.924C231.875 189.973 231.808 190 231.739 190Z" fill="#CACACA"/>
</g>
<defs>
<clipPath id="clip0">
<rect width="232" height="190" fill="white"/>
</clipPath>
</defs>
</svg>
