<svg version="1.2" baseProfile="tiny-ps" xmlns="http://www.w3.org/2000/svg" viewBox="0 0 350 250" width="350" height="250">
  <title>1</title>
  <defs>
    <clipPath clipPathUnits="userSpaceOnUse" id="cp1">
      <path d="M59 30L291 30L291 220L59 220L59 30Z" />
    </clipPath>
  </defs>
  <style>
    tspan { white-space:pre }
    .shp0 { fill: #2f2e41 }
    .shp1 { fill: #e6e6e6 }
    .shp2 { fill: #65a30d }
    .shp3 { fill: #ffffff }
    .shp4 { fill: #ffb8b8 }
    .shp5 { opacity: 0.2;fill: #000000 }
    .shp6 { fill: #3f3d56 }
    .shp7 { fill: #ffb6b6 }
    .shp8 { fill: #cacaca }
  </style>
  <g id="Clip-Path" clip-path="url(#cp1)">
    <g id="Layer">
      <path id="Layer" class="shp0" d="M116.26 203.37L116.74 213.3L116.74 213.3C116.82 214.98 116.22 216.63 115.09 217.87C113.96 219.11 112.38 219.85 110.7 219.94L110.49 219.94L109.72 203.68L116.26 203.37Z" />
      <path id="Layer" class="shp1" d="M257.68 186.58C252.94 195.81 246.93 204.75 239.33 212.83C239.16 213.01 238.99 213.19 238.82 213.37L220.81 204.85C220.92 204.67 221.04 204.46 221.17 204.24C228.9 191.02 275.61 110.36 274.14 92.09C274.31 93.6 279.85 143.42 257.68 186.58Z" />
      <path id="Layer" class="shp1" d="M242.81 214.47C242.55 214.61 242.29 214.75 242.03 214.89L228.52 208.5C228.71 208.37 228.93 208.21 229.18 208.03C233.32 205.06 245.63 196.15 257.68 186.58C270.62 176.29 283.26 165.24 285.14 159.97C284.76 161.18 272.91 197.95 242.81 214.47Z" />
      <path id="Layer" class="shp2" d="M81.48 219.55C93 219.55 102.33 210.22 102.33 198.72C102.33 187.22 93 177.89 81.48 177.89C69.96 177.89 60.62 187.22 60.62 198.72C60.62 210.22 69.96 219.55 81.48 219.55Z" />
      <path id="Layer" fill-rule="evenodd" class="shp3" d="M91.8 190.79C92.32 191.32 92.61 192.02 92.62 192.76L92.62 204.68C92.61 205.42 92.32 206.12 91.8 206.65C91.28 207.17 90.57 207.46 89.83 207.46L73.12 207.46C72.39 207.46 71.68 207.17 71.16 206.65C70.63 206.12 70.34 205.42 70.34 204.68L70.34 192.76C70.34 192.02 70.63 191.32 71.16 190.79C71.68 190.27 72.39 189.98 73.12 189.98L89.83 189.98C90.57 189.98 91.28 190.27 91.8 190.79ZM73.12 191.57C73.04 191.57 72.96 191.58 72.88 191.59L81.48 198.5L90.13 191.61C90.03 191.58 89.93 191.57 89.83 191.57L73.12 191.57ZM90.67 205.52C90.9 205.3 91.02 205 91.02 204.68L91.02 192.93L81.97 200.14C81.83 200.25 81.66 200.31 81.48 200.31C81.3 200.31 81.12 200.25 80.98 200.13L71.93 192.87L71.93 204.68C71.93 205 72.06 205.3 72.28 205.52C72.5 205.75 72.81 205.87 73.12 205.87L89.83 205.87C90.15 205.87 90.45 205.75 90.67 205.52Z" />
      <path id="Layer" class="shp4" d="M161.96 168.65L166.62 168.69C167.1 168.69 167.56 168.59 167.99 168.4C168.42 168.2 168.81 167.92 169.11 167.56C169.42 167.2 169.65 166.78 169.78 166.33C169.9 165.87 169.93 165.4 169.86 164.93C169.78 164.43 169.58 163.96 169.28 163.54C168.98 163.13 168.59 162.8 168.14 162.56C167.69 162.33 167.19 162.21 166.68 162.2C166.17 162.2 165.67 162.31 165.22 162.54L160.81 164.71L145.76 168.06L139.32 161.47L135.61 167.57L144.31 174.28L161.96 168.65Z" />
      <path id="Layer" class="shp0" d="M161.08 216.8L155.59 217.85C151.83 206.03 147.76 194.84 147.76 186.18C142.45 192.09 135.86 195.46 128.1 196.53L128.94 183.43L135.29 180.05L145 175.58C145.85 175.19 146.76 174.96 147.7 174.91C149.52 174.81 151.3 175.39 152.72 176.54C154.13 177.68 155.08 179.31 155.36 181.1L161.08 216.8Z" />
      <path id="Layer" class="shp0" d="M134.76 194.94L132.57 196.6C131.63 197.32 130.51 197.78 129.34 197.93C128.17 198.08 126.97 197.93 125.88 197.48C119.6 192.78 115.14 194.16 111.1 201.25C106.26 195.79 105.06 187.9 109.39 179.74L133.38 180.26L138.25 178.79L134.76 194.94Z" />
      <path id="Layer" class="shp0" d="M126.77 219.41C125.39 219.83 123.91 219.76 122.59 219.2C121.26 218.64 120.17 217.63 119.52 216.36C117.36 214.46 115.54 211.74 113.96 208.44C112.83 206.02 111.86 203.52 111.05 200.97C109.96 197.6 111.78 193.92 115.18 192.91C115.28 192.88 115.39 192.86 115.49 192.83C120.03 191.67 124.69 194.28 126.24 198.7L130.75 211.53C131.01 212.29 131.13 213.09 131.08 213.9C131.04 214.7 130.84 215.49 130.49 216.21C130.14 216.94 129.65 217.58 129.05 218.12C128.45 218.66 127.75 219.07 126.99 219.33C126.92 219.36 126.84 219.39 126.77 219.41Z" />
      <path id="Layer" class="shp5" d="M113.19 206.98C113.19 206.98 118.48 212.89 119.53 216.27L113.19 206.98Z" />
      <path id="Layer" class="shp4" d="M92.69 179.07L90.92 183.38C90.74 183.82 90.66 184.29 90.68 184.76C90.7 185.23 90.83 185.69 91.05 186.11C91.26 186.53 91.57 186.9 91.95 187.18C92.32 187.47 92.75 187.68 93.21 187.78C93.71 187.89 94.22 187.88 94.72 187.76C95.21 187.64 95.67 187.4 96.05 187.07C96.43 186.73 96.73 186.32 96.93 185.85C97.12 185.38 97.2 184.87 97.16 184.36L96.78 179.48L99.26 164.28L107.77 160.74L103.48 155.05L94.01 160.62L92.69 179.07Z" />
      <path id="Layer" class="shp2" d="M134.97 179.74C128.9 189.93 116.78 193.88 106.41 185.89C108.24 179.91 114.13 163.36 110.32 162.72C102.24 166.11 102.23 158.16 100.72 154.18L119.11 147.43L129.05 150.17L131.09 150.89C132.41 151.36 133.56 152.23 134.38 153.37C135.2 154.51 135.65 155.88 135.67 157.28C131.5 163.31 128.41 169.73 134.97 179.74Z" />
      <path id="Layer" class="shp2" d="M137.3 171.5L130 165.48L132.43 151.44L142.37 162L137.3 171.5Z" />
      <path id="Layer" class="shp6" d="M258.34 75.03L257.3 75.03L257.3 46.51C257.3 42.13 255.56 37.93 252.46 34.83C249.36 31.74 245.15 30 240.77 30L180.27 30C175.89 30 171.68 31.74 168.58 34.83C165.48 37.93 163.74 42.13 163.74 46.51L163.74 202.97C163.74 207.35 165.48 211.55 168.58 214.64C171.68 217.74 175.89 219.48 180.27 219.48L240.77 219.48C245.15 219.48 249.36 217.74 252.46 214.64C255.55 211.55 257.29 207.35 257.29 202.97L257.29 95.33L258.34 95.33L258.34 75.03Z" />
      <path id="Layer" class="shp3" d="M241.44 34.29L233.54 34.29C233.9 35.18 234.04 36.15 233.94 37.1C233.84 38.06 233.51 38.98 232.98 39.77C232.44 40.57 231.72 41.22 230.87 41.68C230.02 42.13 229.07 42.36 228.11 42.36L193.45 42.36C192.49 42.36 191.54 42.13 190.69 41.68C189.84 41.22 189.12 40.57 188.58 39.77C188.05 38.98 187.72 38.06 187.62 37.1C187.52 36.15 187.66 35.18 188.02 34.29L180.64 34.29C177.37 34.29 174.23 35.59 171.92 37.91C169.6 40.22 168.3 43.35 168.3 46.62L168.3 202.85C168.3 206.12 169.6 209.26 171.92 211.57C174.23 213.88 177.37 215.18 180.64 215.18L241.43 215.18C244.71 215.18 247.85 213.88 250.16 211.57C252.47 209.26 253.78 206.12 253.78 202.85L253.78 202.85L253.78 46.62C253.78 43.35 252.47 40.22 250.16 37.9C247.85 35.59 244.71 34.29 241.43 34.29L241.44 34.29L241.44 34.29Z" />
      <path id="Layer" class="shp1" d="M211.15 206.45C214.89 206.45 217.92 203.42 217.92 199.68C217.92 195.94 214.89 192.91 211.15 192.91C207.4 192.91 204.37 195.94 204.37 199.68C204.37 203.42 207.4 206.45 211.15 206.45Z" />
      <path id="Layer" class="shp1" d="M183.65 137.08C183.01 137.08 182.49 137.68 182.49 138.41C182.49 139.14 183.01 139.73 183.65 139.73L238.43 139.73C239.07 139.73 239.59 139.14 239.59 138.41C239.59 137.68 239.07 137.08 238.43 137.08L183.65 137.08Z" />
      <path id="Layer" class="shp1" d="M183.65 168.32C183.01 168.32 182.49 168.92 182.49 169.65C182.49 170.38 183.01 170.97 183.65 170.97L238.43 170.97C239.07 170.97 239.59 170.38 239.59 169.65C239.59 168.92 239.07 168.32 238.43 168.32L183.65 168.32Z" />
      <path id="Layer" class="shp1" d="M183.65 145.03C183.01 145.03 182.49 145.62 182.49 146.35C182.49 147.08 183.01 147.68 183.65 147.68L207.22 147.68C207.86 147.68 208.38 147.08 208.38 146.35C208.38 145.62 207.86 145.03 207.22 145.03L183.65 145.03Z" />
      <path id="Layer" class="shp1" d="M183.65 152.61C183.01 152.61 182.49 153.2 182.49 153.93C182.49 154.66 183.01 155.25 183.65 155.25L238.43 155.25C239.07 155.25 239.59 154.66 239.59 153.93C239.59 153.2 239.07 152.61 238.43 152.61L183.65 152.61Z" />
      <path id="Layer" class="shp1" d="M183.65 160.55C183.01 160.55 182.49 161.15 182.49 161.88C182.49 162.61 183.01 163.2 183.65 163.2L207.22 163.2C207.86 163.2 208.38 162.61 208.38 161.88C208.38 161.15 207.86 160.55 207.22 160.55L183.65 160.55Z" />
      <path id="Layer" class="shp2" d="M193.99 76.77L228.09 76.77C228.47 76.77 228.83 76.92 229.09 77.18C229.36 77.45 229.51 77.81 229.51 78.18L229.51 113.65C229.51 114.03 229.36 114.39 229.09 114.66C228.83 114.92 228.47 115.07 228.09 115.07L193.99 115.07C193.61 115.07 193.25 114.92 192.99 114.66C192.72 114.39 192.57 114.03 192.57 113.65L192.57 78.18C192.57 77.81 192.72 77.45 192.99 77.18C193.25 76.92 193.61 76.77 193.99 76.77Z" />
      <path id="Layer" class="shp3" d="M220.82 107.76C220.95 107.76 221.08 107.73 221.19 107.69C221.31 107.64 221.42 107.57 221.51 107.48C221.6 107.39 221.67 107.28 221.72 107.16C221.77 107.05 221.79 106.92 221.79 106.8C221.79 106.67 221.77 106.54 221.72 106.43C221.67 106.31 221.6 106.2 221.51 106.11C221.42 106.02 221.31 105.95 221.19 105.91C221.08 105.86 220.95 105.83 220.82 105.83L201.26 105.83C201.13 105.83 201 105.86 200.89 105.9C200.77 105.95 200.66 106.02 200.57 106.11C200.48 106.2 200.41 106.31 200.36 106.43C200.31 106.54 200.29 106.67 200.29 106.8C200.29 106.92 200.31 107.05 200.36 107.16C200.41 107.28 200.48 107.39 200.57 107.48C200.66 107.57 200.77 107.64 200.89 107.69C201 107.73 201.13 107.76 201.26 107.76L220.82 107.76Z" />
      <path id="Layer" class="shp3" d="M220.82 102.08C221.08 102.08 221.33 101.98 221.51 101.8C221.69 101.62 221.79 101.37 221.79 101.12C221.79 100.86 221.69 100.62 221.51 100.44C221.33 100.26 221.08 100.16 220.82 100.16L201.26 100.16C201 100.16 200.76 100.26 200.57 100.44C200.39 100.62 200.29 100.86 200.29 101.12C200.29 101.37 200.39 101.62 200.57 101.8C200.75 101.98 201 102.08 201.26 102.08L220.82 102.08Z" />
      <path id="Layer" class="shp3" d="M211.04 84.08C212.24 84.08 213.41 84.44 214.41 85.1C215.41 85.77 216.19 86.72 216.65 87.82C217.11 88.93 217.23 90.15 217 91.33C216.76 92.5 216.18 93.58 215.33 94.43C214.49 95.28 213.4 95.86 212.22 96.09C211.05 96.33 209.83 96.21 208.72 95.75C207.61 95.29 206.66 94.51 205.99 93.51C205.32 92.52 204.97 91.34 204.97 90.14C204.97 88.54 205.61 87 206.75 85.86C207.89 84.72 209.43 84.08 211.04 84.08Z" />
      <path id="Layer" class="shp0" d="M133.57 145.59L115.54 145.59C115.17 145.59 114.82 145.44 114.56 145.18C114.29 144.92 114.15 144.56 114.15 144.19L114.15 136.43C114.15 133.67 115.24 131.03 117.19 129.08C119.15 127.13 121.8 126.03 124.56 126.03C127.32 126.03 129.97 127.13 131.92 129.08C133.87 131.03 134.97 133.67 134.97 136.43L134.97 144.19C134.97 144.56 134.82 144.92 134.56 145.18C134.3 145.44 133.94 145.59 133.57 145.59Z" />
      <path id="Layer" class="shp7" d="M133.24 141.15C135.27 137.46 133.91 132.83 130.21 130.81C126.51 128.79 121.87 130.14 119.85 133.84C117.83 137.53 119.19 142.17 122.89 144.19C126.58 146.2 131.22 144.85 133.24 141.15Z" />
      <path id="Layer" class="shp0" d="M137.43 137.21L126.41 137.21L126.3 135.63L125.73 137.21L124.03 137.21L123.81 134.07L122.69 137.21L119.41 137.21L119.41 137.05C119.41 134.87 120.28 132.78 121.82 131.24C123.36 129.7 125.46 128.83 127.64 128.83L129.19 128.83C131.38 128.83 133.47 129.7 135.02 131.24C136.56 132.78 137.43 134.87 137.43 137.05L137.43 137.21Z" />
      <path id="Layer" class="shp0" d="M126.32 147.04C126.24 147.04 126.15 147.03 126.07 147.01L118 145.59L118 132.27L126.88 132.27L126.66 132.53C123.6 136.09 125.91 141.87 127.56 145C127.68 145.23 127.73 145.49 127.71 145.75C127.69 146 127.6 146.25 127.45 146.46C127.32 146.64 127.15 146.78 126.95 146.88C126.76 146.98 126.54 147.04 126.32 147.04Z" />
      <path id="Layer" class="shp0" d="M153.19 212.81L163.15 212.81L163.15 212.81C164.83 212.81 166.44 213.48 167.63 214.67C168.82 215.86 169.49 217.47 169.49 219.15L169.49 219.35L153.19 219.35L153.19 212.81Z" />
      <path id="Layer" class="shp8" d="M290.74 220L59.26 220C59.19 220 59.13 219.97 59.08 219.92C59.03 219.88 59 219.81 59 219.74C59 219.67 59.03 219.6 59.08 219.56C59.13 219.51 59.19 219.48 59.26 219.48L290.74 219.48C290.81 219.48 290.88 219.51 290.92 219.56C290.97 219.6 291 219.67 291 219.74C291 219.81 290.97 219.88 290.92 219.92C290.88 219.97 290.81 220 290.74 220Z" />
    </g>
  </g>
</svg>
