<svg version="1.2" baseProfile="tiny-ps" xmlns="http://www.w3.org/2000/svg" viewBox="0 0 350 250" width="350" height="250">
  <title>2</title>
  <defs>
    <clipPath clipPathUnits="userSpaceOnUse" id="cp1">
      <path d="M-3 0L352 0L352 253L-3 253L-3 0Z" />
    </clipPath>
  </defs>
  <style>
    tspan { white-space:pre }
    .shp0 { fill: #3f3d56 }
    .shp1 { fill: #65a30d }
    .shp2 { opacity: 0.102;fill: #000000 }
    .shp3 { fill: #ffffff }
  </style>
  <g id="Clip-Path" clip-path="url(#cp1)">
    <g id="Layer">
      <path id="Layer" fill-rule="evenodd" class="shp0" d="M175.46 212.85C172.74 212.84 170.02 212.49 167.38 211.81L166.87 211.66L166.38 211.42C148.94 202.68 134.23 191.14 122.65 177.11C113.06 165.42 105.59 152.16 100.56 137.91C94.56 120.85 91.67 102.85 92.03 84.77C92.04 84.39 92.04 84.1 92.04 83.9C92.04 75.11 96.93 67.4 104.48 64.25C110.26 61.84 162.75 40.29 166.55 38.73C173.69 35.16 181.31 38.14 182.53 38.66C185.27 39.78 233.79 59.62 244.28 64.61C255.09 69.76 257.97 79 257.97 83.65C257.97 104.7 254.32 124.37 247.13 142.12C241.32 156.48 233.09 169.75 222.79 181.33C202.92 203.68 183.04 211.6 182.85 211.67C180.48 212.49 177.98 212.89 175.46 212.85ZM170.79 201.28C172.51 201.66 176.48 202.24 179.07 201.3C182.35 200.1 198.99 191.48 214.53 174C236.01 149.84 246.91 119.46 246.93 83.72C246.89 83 246.37 77.84 239.53 74.58C229.25 69.68 178.81 49.07 178.3 48.86L178.16 48.8C177.1 48.36 173.74 47.43 171.42 48.64L170.96 48.86C170.39 49.09 114.67 71.97 108.73 74.44C104.57 76.17 103.09 80.46 103.09 83.9C103.09 84.15 103.08 84.51 103.07 84.99C102.6 109.44 108.26 169.61 170.79 201.28Z" />
      <path id="Layer" class="shp1" d="M168.86 43.75C168.86 43.75 112.63 66.84 106.6 69.34C100.58 71.85 97.57 77.88 97.57 83.9C97.57 89.92 93.05 168.5 168.86 206.49C168.86 206.49 175.74 208.39 180.96 206.49C186.18 204.58 252.45 172.47 252.45 83.65C252.45 83.65 252.45 74.61 241.91 69.6C231.36 64.58 180.39 43.75 180.39 43.75C180.39 43.75 174.13 40.99 168.86 43.75Z" />
      <path id="Layer" class="shp2" d="M174.88 61.82L174.88 184.96C174.88 184.96 118.15 157.66 118.65 85.9L174.88 61.82Z" />
      <path id="Layer" class="shp3" d="M175.62 150.32L157.55 127.1L168.06 118.93L176.62 129.92L205.52 99.42L215.19 108.58L175.62 150.32Z" />
    </g>
  </g>
</svg>
