<svg width="355" height="253" viewBox="0 0 355 253" fill="none" xmlns="http://www.w3.org/2000/svg">
<g clip-path="url(#clip0)">
<path d="M324.154 227.596C327.268 233.097 324.628 251.676 324.628 251.676C324.628 251.676 307.338 244.361 304.225 238.863C302.734 236.221 302.353 233.096 303.165 230.174C303.978 227.252 305.918 224.772 308.559 223.278C311.2 221.785 314.326 221.401 317.251 222.211C320.175 223.02 322.658 224.957 324.154 227.596V227.596Z" fill="#F1F1F1"/>
<path d="M324.878 251.653L324.511 251.73C320.973 234.93 308.619 223.538 308.495 223.425L308.748 223.147C308.873 223.261 321.315 234.731 324.878 251.653Z" fill="white"/>
<path d="M352.444 233.86C348.219 241.52 324.399 251.898 324.399 251.898C324.399 251.898 320.472 226.224 324.695 218.566C326.724 214.888 330.132 212.166 334.168 210.999C338.205 209.832 342.54 210.316 346.22 212.344C349.9 214.372 352.623 217.779 353.79 221.813C354.957 225.848 354.473 230.181 352.444 233.86Z" fill="#F1F1F1"/>
<path d="M324.61 252.176L324.252 251.8C341.489 235.438 345.951 212.617 345.994 212.388L346.504 212.484C346.461 212.715 341.972 235.695 324.61 252.176Z" fill="white"/>
<path d="M83.4607 175.852C80.7347 175.843 78.0206 175.492 75.382 174.807L74.8619 174.664L74.3795 174.422C56.9378 165.681 42.2233 154.136 30.6445 140.106C21.0596 128.424 13.5869 115.161 8.56218 100.913C2.55345 83.8537 -0.337346 65.8537 0.0278087 47.772C0.0351768 47.3925 0.0414126 47.0994 0.0414126 46.8975C0.0414126 38.1079 4.92257 30.3957 12.4767 27.2495C18.2583 24.8416 70.7521 3.2902 74.5449 1.73305C81.6878 -1.84435 89.308 1.14156 90.5275 1.66371C93.2627 2.78152 141.79 22.6207 152.277 27.6119C163.084 32.756 165.968 41.9972 165.968 46.6466C165.968 67.696 162.321 87.3682 155.128 105.117C149.318 119.483 141.085 132.746 130.786 144.328C110.915 166.68 91.0391 174.603 90.8472 174.673C88.4718 175.49 85.9725 175.889 83.4607 175.852ZM78.7865 164.279C80.5097 164.665 84.477 165.244 87.0629 164.302C90.3479 163.104 106.984 154.481 122.53 136.995C144.009 112.835 154.907 82.4633 154.923 46.7243C154.885 46.0002 154.37 40.836 147.528 37.5796C137.245 32.6849 86.8048 12.0695 86.2965 11.8618L86.1571 11.8027C85.1001 11.36 81.736 10.4274 79.4171 11.642L78.9528 11.8583C78.3906 12.0892 22.6677 34.9652 16.7249 37.4402C12.5677 39.1716 11.0865 43.4608 11.0865 46.8976C11.0865 47.1487 11.08 47.514 11.0708 47.9862C10.5958 72.4402 16.2572 132.614 78.7865 164.279Z" fill="#3F3D56"/>
<path d="M76.8556 6.75218C76.8556 6.75218 20.6264 29.8357 14.6018 32.3448C8.57721 34.8539 5.56493 40.8757 5.56493 46.8975C5.56493 52.9193 1.04651 131.496 76.8556 169.487C76.8556 169.487 83.7361 171.39 88.9562 169.487C94.1763 167.584 160.447 135.468 160.447 46.6466C160.447 46.6466 160.446 37.6139 149.904 32.5957C139.361 27.5776 88.3869 6.75218 88.3869 6.75218C88.3869 6.75218 82.1271 3.99218 76.8556 6.75218Z" fill="#6C63FF"/>
<path opacity="0.1" d="M82.8801 24.8176V147.96C82.8801 147.96 26.1487 120.665 26.6508 48.9048L82.8801 24.8176Z" fill="black"/>
<path d="M83.6197 113.322L65.5479 90.0961L76.0574 81.926L84.6143 92.9229L113.521 62.4216L123.188 71.576L83.6197 113.322Z" fill="white"/>
<path d="M354.567 253H189.434C189.319 253 189.209 252.954 189.128 252.873C189.047 252.792 189.001 252.682 189.001 252.567C189.001 252.452 189.047 252.342 189.128 252.26C189.209 252.179 189.319 252.134 189.434 252.134H354.567C354.682 252.134 354.792 252.179 354.873 252.26C354.954 252.342 355 252.452 355 252.567C355 252.682 354.954 252.792 354.873 252.873C354.792 252.954 354.682 253 354.567 253Z" fill="#CACACA"/>
</g>
<defs>
<clipPath id="clip0">
<rect width="355" height="253" fill="white"/>
</clipPath>
</defs>
</svg>
