<svg width="245" height="204" viewBox="0 0 245 204" fill="none" xmlns="http://www.w3.org/2000/svg">
<g clip-path="url(#clip0)">
<path d="M116.885 48.4778H118.002V17.7718C118.002 13.0584 119.869 8.5381 123.192 5.20524C126.514 1.87238 131.021 0 135.72 0H200.576C205.274 0 209.781 1.87238 213.104 5.20524C216.426 8.5381 218.293 13.0584 218.293 17.7718V186.228C218.293 190.941 216.426 195.462 213.104 198.794C209.781 202.127 205.274 204 200.576 204H135.72C131.021 204 126.514 202.127 123.192 198.794C119.869 195.462 118.002 190.941 118.002 186.228V70.3348H116.885V48.4778Z" fill="#3F3D56"/>
<path d="M135.005 4.62378H143.471C143.081 5.58119 142.933 6.61996 143.038 7.64857C143.143 8.67717 143.499 9.66405 144.074 10.5223C144.649 11.3805 145.425 12.0837 146.335 12.5699C147.245 13.0561 148.26 13.3105 149.291 13.3105H186.445C187.476 13.3105 188.491 13.0561 189.401 12.5699C190.311 12.0837 191.087 11.3805 191.662 10.5223C192.237 9.66405 192.593 8.67717 192.698 7.64857C192.803 6.61996 192.655 5.58119 192.265 4.62378H200.172C201.91 4.62373 203.63 4.96698 205.236 5.63391C206.841 6.30085 208.3 7.27841 209.528 8.51079C210.757 9.74317 211.732 11.2062 212.397 12.8164C213.062 14.4267 213.404 16.1525 213.404 17.8954V186.105C213.404 189.625 212.01 193 209.529 195.489C207.047 197.978 203.682 199.377 200.173 199.377H135.005C131.496 199.377 128.13 197.978 125.649 195.489C123.167 193 121.773 189.625 121.773 186.105V17.8961C121.773 14.3761 123.167 11.0004 125.649 8.5114C128.13 6.02242 131.496 4.62414 135.005 4.62414V4.62378Z" fill="white"/>
<path d="M167.588 155.361C175.886 155.361 182.613 148.614 182.613 140.29C182.613 131.967 175.886 125.219 167.588 125.219C159.29 125.219 152.563 131.967 152.563 140.29C152.563 148.614 159.29 155.361 167.588 155.361Z" fill="#CCCCCC"/>
<path d="M167.589 154.61C175.473 154.61 181.865 148.198 181.865 140.29C181.865 132.381 175.473 125.97 167.589 125.97C159.704 125.97 153.312 132.381 153.312 140.29C153.312 148.198 159.704 154.61 167.589 154.61Z" fill="white"/>
<path d="M165.205 146.553L160.708 140.753L163.323 138.713L165.452 141.459L172.646 133.843L175.051 136.128L165.205 146.553Z" fill="#6C63FF"/>
<path d="M202.673 31.4899H132.296V105.631H202.673V31.4899Z" fill="#E6E6E6"/>
<path d="M157.901 94.1631L152.563 102.49H156.418L157.901 94.1631Z" fill="#E6E6E6"/>
<path d="M164.127 55.7982C168.384 55.7982 171.836 52.3362 171.836 48.0657C171.836 43.7951 168.384 40.3331 164.127 40.3331C159.869 40.3331 156.418 43.7951 156.418 48.0657C156.418 52.3362 159.869 55.7982 164.127 55.7982Z" fill="#FEB8B8"/>
<path d="M172.725 56.3931C172.725 56.3931 169.167 57.5827 167.388 59.6647C165.609 61.7466 161.458 62.044 161.458 62.044C161.458 62.044 157.787 64.1167 156.418 67.6946C154.957 71.5076 155.806 76.8764 156.418 78.1043C157.604 80.4836 157.604 86.4316 157.604 86.4316L156.121 100.112C156.121 100.112 150.784 105.168 154.935 105.763C159.086 106.358 166.498 105.465 170.946 105.763C175.393 106.06 180.434 106.655 178.951 103.681C177.469 100.707 175.689 98.6251 177.469 92.6771C178.861 88.0225 178.8 70.6185 178.708 63.2709C178.696 62.2616 178.426 61.2724 177.924 60.3972C177.423 59.5221 176.707 58.7902 175.844 58.2711L172.725 56.3931Z" fill="#3F3D56"/>
<path d="M161.161 101.896C161.161 101.896 159.813 104.875 159.679 106.654C158.641 120.483 166.202 106.654 166.202 106.654V104.275L161.161 101.896Z" fill="#FEB8B8"/>
<path opacity="0.1" d="M168.426 65.761L169.315 83.9025L160.696 101.413L159.234 100.855L168.13 84.4966L168.426 65.761Z" fill="black"/>
<path d="M175.394 60.2591L177.618 59.813C177.618 59.813 184.289 64.72 182.213 74.5345C180.137 84.3489 170.947 99.2192 170.947 99.2192C170.947 99.2192 168.871 101.896 168.278 102.491C167.685 103.086 166.499 102.491 167.092 103.383C167.685 104.275 166.203 104.87 166.203 104.87C166.203 104.87 159.68 104.87 160.272 102.491C160.865 100.111 170.946 83.1586 170.946 83.1586L169.464 67.3961C169.464 67.3961 168.278 59.6643 175.394 60.2591Z" fill="#3F3D56"/>
<path opacity="0.1" d="M178.21 87.7689V85.687L168.131 102.342L178.21 87.7689Z" fill="black"/>
<path d="M158.658 40.9007L157.384 40.3891C157.384 40.3891 160.048 37.4464 163.756 37.7024L162.713 36.551C162.713 36.551 165.262 35.5274 167.579 38.2151C168.797 39.6275 170.206 41.2877 171.085 43.1579H172.449L171.88 44.4159L173.873 45.6739L171.826 45.448C172.02 46.5339 171.953 47.6504 171.633 48.7055L171.687 49.6997C171.687 49.6997 169.315 46.0174 169.315 45.5068V46.7861C169.315 46.7861 168.041 45.6346 168.041 44.867L167.346 45.7624L166.998 44.355L162.712 45.7624L163.407 44.611L160.742 44.9948L161.785 43.5874C161.785 43.5874 158.772 45.2515 158.657 46.6579C158.541 48.0642 157.034 49.8587 157.034 49.8587L156.339 48.5794C156.339 48.5794 155.297 42.8212 158.658 40.9007Z" fill="#2F2E41"/>
<path d="M0.639606 204H244.36C244.713 204 245 203.841 245 203.646C245 203.45 244.713 203.292 244.36 203.292H0.639606C0.286622 203.292 0 203.45 0 203.646C0 203.841 0.286287 204 0.639606 204Z" fill="#CBCBCB"/>
</g>
<defs>
<clipPath id="clip0">
<rect width="245" height="204" fill="white"/>
</clipPath>
</defs>
</svg>
