<svg version="1.2" baseProfile="tiny-ps" xmlns="http://www.w3.org/2000/svg" viewBox="0 0 350 250" width="350" height="250">
  <title>3</title>
  <defs>
    <clipPath clipPathUnits="userSpaceOnUse" id="cp1">
      <path d="M46 23L291 23L291 227L46 227L46 23Z" />
    </clipPath>
  </defs>
  <style>
    tspan { white-space:pre }
    .shp0 { fill: #3f3d56 }
    .shp1 { fill: #ffffff }
    .shp2 { fill: #cccccc }
    .shp3 { fill: #65a30d }
    .shp4 { fill: #e6e6e6 }
    .shp5 { fill: #feb8b8 }
    .shp6 { opacity: 0.102;fill: #000000 }
    .shp7 { fill: #2f2e41 }
    .shp8 { fill: #cbcbcb }
  </style>
  <g id="Clip-Path" clip-path="url(#cp1)">
    <g id="Layer">
      <path id="Layer" class="shp0" d="M162.88 71.48L164 71.48L164 40.77C164 36.06 165.87 31.54 169.19 28.21C172.51 24.87 177.02 23 181.72 23L246.58 23C251.27 23 255.78 24.87 259.1 28.21C262.43 31.54 264.29 36.06 264.29 40.77L264.29 209.23C264.29 213.94 262.43 218.46 259.1 221.79C255.78 225.13 251.27 227 246.58 227L181.72 227C177.02 227 172.51 225.13 169.19 221.79C165.87 218.46 164 213.94 164 209.23L164 93.33L162.88 93.33L162.88 71.48Z" />
      <path id="Layer" class="shp1" d="M181 27.62L189.47 27.62C189.08 28.58 188.93 29.62 189.04 30.65C189.14 31.68 189.5 32.66 190.07 33.52C190.65 34.38 191.43 35.08 192.34 35.57C193.25 36.06 194.26 36.31 195.29 36.31L232.44 36.31C233.48 36.31 234.49 36.06 235.4 35.57C236.31 35.08 237.09 34.38 237.66 33.52C238.24 32.66 238.59 31.68 238.7 30.65C238.8 29.62 238.66 28.58 238.26 27.62L246.17 27.62C247.91 27.62 249.63 27.97 251.24 28.63C252.84 29.3 254.3 30.28 255.53 31.51C256.76 32.74 257.73 34.21 258.4 35.82C259.06 37.43 259.4 39.15 259.4 40.9L259.4 209.1C259.4 212.63 258.01 216 255.53 218.49C253.05 220.98 249.68 222.38 246.17 222.38L181 222.38C177.5 222.38 174.13 220.98 171.65 218.49C169.17 216 167.77 212.63 167.77 209.1L167.77 40.9C167.77 37.38 169.17 34 171.65 31.51C174.13 29.02 177.5 27.62 181 27.62L181 27.62Z" />
      <path id="Layer" class="shp2" d="M213.59 178.36C221.89 178.36 228.61 171.61 228.61 163.29C228.61 154.97 221.89 148.22 213.59 148.22C205.29 148.22 198.56 154.97 198.56 163.29C198.56 171.61 205.29 178.36 213.59 178.36Z" />
      <path id="Layer" class="shp1" d="M213.59 177.61C221.47 177.61 227.87 171.2 227.87 163.29C227.87 155.38 221.47 148.97 213.59 148.97C205.7 148.97 199.31 155.38 199.31 163.29C199.31 171.2 205.7 177.61 213.59 177.61Z" />
      <path id="Layer" class="shp3" d="M211.21 169.55L206.71 163.75L209.32 161.71L211.45 164.46L218.65 156.84L221.05 159.13L211.21 169.55Z" />
      <path id="Layer" class="shp4" d="M248.67 54.49L178.3 54.49L178.3 128.63L248.67 128.63L248.67 54.49Z" />
      <path id="Layer" class="shp4" d="M203.9 117.16L198.56 125.49L202.42 125.49L203.9 117.16Z" />
      <path id="Layer" class="shp5" d="M210.13 78.8C214.38 78.8 217.84 75.34 217.84 71.07C217.84 66.8 214.38 63.33 210.13 63.33C205.87 63.33 202.42 66.8 202.42 71.07C202.42 75.34 205.87 78.8 210.13 78.8Z" />
      <path id="Layer" class="shp0" d="M218.72 79.39C218.72 79.39 215.17 80.58 213.39 82.66C211.61 84.75 207.46 85.04 207.46 85.04C207.46 85.04 203.79 87.12 202.42 90.69C200.96 94.51 201.81 99.88 202.42 101.1C203.6 103.48 203.6 109.43 203.6 109.43L202.12 123.11C202.12 123.11 196.78 128.17 200.94 128.76C205.09 129.36 212.5 128.47 216.95 128.76C221.39 129.06 226.43 129.66 224.95 126.68C223.47 123.71 221.69 121.63 223.47 115.68C224.86 111.02 224.8 93.62 224.71 86.27C224.7 85.26 224.43 84.27 223.92 83.4C223.42 82.52 222.71 81.79 221.84 81.27L218.72 79.39Z" />
      <path id="Layer" class="shp5" d="M207.16 124.9C207.16 124.9 205.81 127.88 205.68 129.65C204.64 143.48 212.2 129.65 212.2 129.65L212.2 127.28L207.16 124.9Z" />
      <path id="Layer" class="shp6" d="M214.43 88.76L215.31 106.9L206.7 124.41L205.23 123.86L214.13 107.5L214.43 88.76Z" />
      <path id="Layer" class="shp0" d="M221.39 83.26L223.62 82.81C223.62 82.81 230.29 87.72 228.21 97.53C226.14 107.35 216.95 122.22 216.95 122.22C216.95 122.22 214.87 124.9 214.28 125.49C213.69 126.09 212.5 125.49 213.09 126.38C213.69 127.28 212.2 127.87 212.2 127.87C212.2 127.87 205.68 127.87 206.27 125.49C206.87 123.11 216.95 106.16 216.95 106.16L215.46 90.4C215.46 90.4 214.28 82.66 221.39 83.26Z" />
      <path id="Layer" class="shp6" d="M224.21 110.77L224.21 108.69L214.13 125.34L224.21 110.77Z" />
      <path id="Layer" class="shp7" d="M204.66 63.9L203.38 63.39C203.38 63.39 206.05 60.45 209.76 60.7L208.71 59.55C208.71 59.55 211.26 58.53 213.58 61.22C214.8 62.63 216.21 64.29 217.09 66.16L218.45 66.16L217.88 67.42L219.87 68.67L217.83 68.45C218.02 69.53 217.95 70.65 217.63 71.71L217.69 72.7C217.69 72.7 215.31 69.02 215.31 68.51L215.31 69.79C215.31 69.79 214.04 68.63 214.04 67.87L213.35 68.76L213 67.35L208.71 68.76L209.41 67.61L206.74 67.99L207.78 66.59C207.78 66.59 204.77 68.25 204.66 69.66C204.54 71.06 203.03 72.86 203.03 72.86L202.34 71.58C202.34 71.58 201.3 65.82 204.66 63.9Z" />
      <path id="Layer" class="shp8" d="M46.64 227L290.36 227C290.71 227 291 226.84 291 226.65C291 226.45 290.71 226.29 290.36 226.29L46.64 226.29C46.29 226.29 46 226.45 46 226.65C46 226.84 46.29 227 46.64 227Z" />
    </g>
  </g>
</svg>
