<svg version="1.2" baseProfile="tiny-ps" xmlns="http://www.w3.org/2000/svg" viewBox="0 0 340 250" width="340" height="250">
  <title>4</title>
  <defs>
    <clipPath clipPathUnits="userSpaceOnUse" id="cp1">
      <path d="M-5 -4L345 -4L345 253L-5 253L-5 -4Z" />
    </clipPath>
  </defs>
  <style>
    tspan { white-space:pre }
    .shp0 { fill: #f1f1f1 }
    .shp1 { fill: #ffb7b7 }
    .shp2 { fill: #2f2e41 }
    .shp3 { fill: #cbcbcb }
    .shp4 { fill: #ffffff }
    .shp5 { fill: #e5e5e5 }
    .shp6 { fill: #65a30d }
  </style>
  <g id="Clip-Path" clip-path="url(#cp1)">
    <g id="Layer">
      <path id="Layer" class="shp0" d="M308.21 242.71L308.21 215.94C308.21 215.94 318.65 234.92 308.21 242.71Z" />
      <path id="Layer" class="shp0" d="M308.85 242.7L289.11 224.6C289.11 224.6 310.17 229.75 308.85 242.7Z" />
      <path id="Layer" class="shp1" d="M223.57 172.01C223.53 171.52 223.59 171.02 223.76 170.56C223.93 170.1 224.2 169.68 224.54 169.33C224.89 168.98 225.31 168.71 225.77 168.54C226.24 168.37 226.73 168.31 227.22 168.35L230.78 161.53L235.46 162.68L230.3 172.24C230.17 173.06 229.75 173.8 229.11 174.33C228.47 174.86 227.66 175.14 226.83 175.11C226 175.08 225.21 174.75 224.61 174.17C224.01 173.6 223.64 172.83 223.57 172.01L223.57 172.01Z" />
      <path id="Layer" class="shp1" d="M244.82 238.44L240.87 238.44L238.99 223.24L244.82 223.24L244.82 238.44Z" />
      <path id="Layer" class="shp2" d="M245.82 242.26L233.1 242.26L233.1 242.1C233.1 240.79 233.62 239.53 234.55 238.6C235.48 237.67 236.74 237.15 238.05 237.15L238.05 237.15L245.82 237.15L245.82 242.26Z" />
      <path id="Layer" class="shp1" d="M276.55 235.5L272.75 236.53L266.93 222.36L272.55 220.83L276.55 235.5Z" />
      <path id="Layer" class="shp2" d="M278.53 238.92L266.26 242.26L266.21 242.1C265.87 240.84 266.04 239.49 266.69 238.35C267.34 237.21 268.42 236.38 269.69 236.03L269.69 236.03L277.19 233.99L278.53 238.92Z" />
      <path id="Layer" class="shp2" d="M237.61 172.77L235.64 202.62L239.87 236.12L246.8 234.01L247.09 204.08L252.63 186.82L269.03 232.92L276.54 230.15L270.35 200.22L266.85 172.11L237.61 172.77Z" />
      <path id="Layer" class="shp3" d="M256.75 120.34L245.08 122.06L240.88 126.21L239.58 141.12L240.39 154.33L237.01 177.63C237.01 177.63 245.5 172.92 252.09 178.81C258.67 184.71 267.88 179.85 268.07 175.93L256.75 120.34Z" />
      <path id="Layer" class="shp2" d="M250.83 139.04L250.83 139.03L256.62 120.16L256.69 120.16C257.11 120.13 266.82 119.56 268.99 124.35L269 124.38L268.34 143.98L269.25 174.68L251.29 178.57L251.16 178.59L250.83 139.04Z" />
      <path id="Layer" class="shp2" d="M244.4 137.74L245.47 121.75C237.91 122.22 238.02 127.57 238.03 127.81L237.95 151.73L236.43 177.32L241.94 176.9L244.4 137.74Z" />
      <path id="Layer" class="shp2" d="M227.36 166.84L234.07 151.28L238.75 142.69L241.2 158.19L232.71 170.91L227.36 166.84Z" />
      <path id="Layer" class="shp1" d="M255.1 161.11C255.2 160.63 255.41 160.18 255.7 159.79C256 159.4 256.38 159.07 256.81 158.84C257.25 158.61 257.73 158.48 258.22 158.46C258.71 158.43 259.21 158.51 259.66 158.7L265.08 153.23L269.2 155.71L261.45 163.32C261.09 164.07 260.46 164.65 259.7 164.97C258.93 165.29 258.07 165.31 257.29 165.04C256.51 164.77 255.85 164.22 255.45 163.49C255.04 162.77 254.92 161.92 255.1 161.11Z" />
      <path id="Layer" class="shp2" d="M259.65 156.7L270.69 144.61L263.38 134.19L264.13 129.1L268.44 123.79L268.52 123.9C268.98 124.49 279.77 138.49 280.08 143.79C280.39 149.11 264.89 162.56 264.22 163.13L264.13 163.21L259.65 156.7Z" />
      <path id="Layer" class="shp1" d="M250.02 119.03C254.35 119.03 257.86 115.52 257.86 111.19C257.86 106.87 254.35 103.36 250.02 103.36C245.68 103.36 242.17 106.87 242.17 111.19C242.17 115.52 245.68 119.03 250.02 119.03Z" />
      <path id="Layer" class="shp2" d="M257.4 104.93L257.78 104.16L255.86 103.21C255.86 103.21 253.75 99.78 249.93 100.75C246.11 101.71 244.39 102.29 244.39 102.29L242.48 103.25L243.44 104.2L241.72 104.78L242.87 105.35L241.53 106.11L242.25 110.05C242.25 110.05 243.45 107.06 245.75 108.2C248.04 109.34 252.24 107.62 252.24 107.62L255.89 114.67C255.89 114.67 256.65 112.2 257.99 112.86C257.99 112.86 261.42 107.4 257.4 104.93Z" />
      <path id="Layer" class="shp4" d="M168.61 149.3L49.29 182.17L10 39.87L129.32 7L168.61 149.3Z" />
      <path id="Layer" fill-rule="evenodd" class="shp0" d="M168.61 149.3L49.29 182.17L10 39.87L129.32 7L168.61 149.3ZM50.82 179.48L165.93 147.78L127.8 9.68L12.69 41.39L50.82 179.48Z" />
      <path id="Layer" fill-rule="evenodd" class="shp5" d="M103.35 70.75L73.44 78.99C73.02 79.1 72.57 79.05 72.19 78.83C71.81 78.61 71.53 78.26 71.41 77.84L63.17 47.96C63.05 47.54 63.11 47.09 63.32 46.71C63.54 46.33 63.9 46.05 64.32 45.93L94.23 37.7C94.65 37.58 95.1 37.64 95.48 37.85C95.86 38.07 96.14 38.43 96.26 38.85L104.51 68.72C104.62 69.14 104.57 69.59 104.35 69.97C104.13 70.35 103.78 70.63 103.35 70.75ZM64.49 46.57C64.24 46.64 64.03 46.81 63.9 47.04C63.77 47.26 63.73 47.53 63.8 47.79L72.05 77.66C72.12 77.91 72.29 78.13 72.52 78.26C72.74 78.39 73.02 78.42 73.27 78.35L103.18 70.11C103.43 70.04 103.65 69.87 103.78 69.65C103.91 69.42 103.94 69.15 103.87 68.9L95.62 39.02C95.55 38.77 95.38 38.55 95.16 38.42C94.93 38.3 94.66 38.26 94.4 38.33L64.49 46.57Z" />
      <path id="Layer" class="shp0" d="M130.42 80.85L46.95 103.84L47.84 107.06L131.31 84.07L130.42 80.85Z" />
      <path id="Layer" class="shp0" d="M132.74 89.25L49.27 112.24L50.16 115.46L133.63 92.47L132.74 89.25Z" />
      <path id="Layer" class="shp0" d="M135.06 97.65L51.59 120.64L52.48 123.86L135.95 100.87L135.06 97.65Z" />
      <path id="Layer" class="shp0" d="M139.14 112.43L55.68 135.42L56.56 138.64L140.03 115.65L139.14 112.43Z" />
      <path id="Layer" class="shp0" d="M141.46 120.83L57.99 143.82L58.88 147.04L142.35 124.05L141.46 120.83Z" />
      <path id="Layer" class="shp0" d="M143.78 129.23L60.31 152.22L61.2 155.44L144.67 132.45L143.78 129.23Z" />
      <path id="Layer" class="shp4" d="M206.81 181.69L83.03 181.69L83.03 34.08L206.81 34.08L206.81 181.69Z" />
      <path id="Layer" fill-rule="evenodd" class="shp5" d="M206.81 181.69L83.03 181.69L83.03 34.08L206.81 34.08L206.81 181.69ZM85.22 179.51L204.63 179.51L204.63 36.26L85.22 36.26L85.22 179.51Z" />
      <path id="Layer" class="shp6" d="M184.27 97.54L113.51 97.54L113.51 100.88L184.27 100.88L184.27 97.54Z" />
      <path id="Layer" class="shp6" d="M184.27 106.22L113.51 106.22L113.51 109.57L184.27 109.57L184.27 106.22Z" />
      <path id="Layer" class="shp6" d="M184.27 114.91L113.51 114.91L113.51 118.25L184.27 118.25L184.27 114.91Z" />
      <path id="Layer" class="shp6" d="M107.75 101.88C108.96 101.88 109.94 100.9 109.94 99.7C109.94 98.49 108.96 97.51 107.75 97.51C106.55 97.51 105.57 98.49 105.57 99.7C105.57 100.9 106.55 101.88 107.75 101.88Z" />
      <path id="Layer" class="shp5" d="M184.27 60.1L113.51 60.1L113.51 63.44L184.27 63.44L184.27 60.1Z" />
      <path id="Layer" class="shp5" d="M184.27 68.78L113.51 68.78L113.51 72.13L184.27 72.13L184.27 68.78Z" />
      <path id="Layer" class="shp5" d="M184.27 77.47L113.51 77.47L113.51 80.81L184.27 80.81L184.27 77.47Z" />
      <path id="Layer" class="shp5" d="M107.75 64.07C108.96 64.07 109.94 63.1 109.94 61.89C109.94 60.69 108.96 59.71 107.75 59.71C106.55 59.71 105.57 60.69 105.57 61.89C105.57 63.1 106.55 64.07 107.75 64.07Z" />
      <path id="Layer" class="shp5" d="M184.27 135.34L113.51 135.34L113.51 138.68L184.27 138.68L184.27 135.34Z" />
      <path id="Layer" class="shp5" d="M184.27 144.03L113.51 144.03L113.51 147.37L184.27 147.37L184.27 144.03Z" />
      <path id="Layer" class="shp5" d="M184.27 152.72L113.51 152.72L113.51 156.06L184.27 156.06L184.27 152.72Z" />
      <path id="Layer" class="shp5" d="M107.75 139.32C108.96 139.32 109.94 138.34 109.94 137.14C109.94 135.93 108.96 134.95 107.75 134.95C106.55 134.95 105.57 135.93 105.57 137.14C105.57 138.34 106.55 139.32 107.75 139.32Z" />
      <path id="Layer" class="shp6" d="M201.03 194.4C215 194.4 226.33 183.09 226.33 169.13C226.33 155.18 215 143.86 201.03 143.86C187.06 143.86 175.73 155.18 175.73 169.13C175.73 183.09 187.06 194.4 201.03 194.4Z" />
      <path id="Layer" fill-rule="evenodd" class="shp4" d="M210.51 168.64C211.16 169.32 211.52 170.22 211.52 171.15L211.52 182.58L190.54 182.58L190.54 171.15C190.54 170.22 190.9 169.32 191.55 168.64C192.2 167.96 193.08 167.56 194.02 167.52L194.02 162.69C194.02 161.77 194.2 160.86 194.55 160.01C194.9 159.15 195.42 158.38 196.07 157.73C196.72 157.08 197.5 156.57 198.35 156.21C199.2 155.86 200.11 155.68 201.03 155.68C201.95 155.68 202.86 155.86 203.71 156.21C204.56 156.57 205.34 157.08 205.99 157.73C206.64 158.38 207.16 159.15 207.51 160.01C207.86 160.86 208.04 161.77 208.04 162.69L208.04 167.52C208.98 167.56 209.86 167.96 210.51 168.64ZM197.82 159.48C196.97 160.33 196.49 161.48 196.49 162.69L196.49 167.51L205.57 167.51L205.57 162.69C205.57 161.48 205.09 160.33 204.24 159.48C203.39 158.63 202.23 158.15 201.03 158.15C199.83 158.15 198.67 158.63 197.82 159.48Z" />
      <path id="Layer" class="shp6" d="M202.92 173.16C202.92 172.84 202.83 172.52 202.67 172.24C202.51 171.95 202.28 171.72 202 171.55C201.73 171.38 201.41 171.29 201.08 171.28C200.76 171.27 200.44 171.34 200.15 171.5C199.86 171.65 199.62 171.87 199.44 172.15C199.27 172.42 199.17 172.73 199.15 173.06C199.13 173.38 199.2 173.71 199.34 174C199.48 174.29 199.7 174.54 199.97 174.72L199.97 178.81L202.09 178.81L202.09 174.72C202.35 174.55 202.55 174.31 202.7 174.04C202.84 173.77 202.92 173.47 202.92 173.16Z" />
      <path id="Layer" class="shp3" d="M330.63 242.56L189.49 242.56C189.39 242.56 189.3 242.52 189.23 242.45C189.16 242.38 189.12 242.28 189.12 242.19C189.12 242.09 189.16 241.99 189.23 241.92C189.3 241.85 189.39 241.82 189.49 241.82L330.63 241.82C330.73 241.82 330.82 241.85 330.89 241.92C330.96 241.99 331 242.09 331 242.19C331 242.28 330.96 242.38 330.89 242.45C330.82 242.52 330.73 242.56 330.63 242.56Z" />
    </g>
  </g>
</svg>
