<svg width="350" height="257" viewBox="0 0 350 257" fill="none" xmlns="http://www.w3.org/2000/svg">
<g clip-path="url(#clip0)">
<path d="M325.15 257V227.817C325.15 227.817 336.537 248.506 325.15 257Z" fill="#F1F1F1"/>
<path d="M325.853 256.995L304.329 237.259C304.329 237.259 327.29 242.873 325.853 256.995Z" fill="#F1F1F1"/>
<path d="M232.867 179.913C232.819 179.378 232.889 178.84 233.072 178.336C233.255 177.831 233.546 177.373 233.926 176.993C234.305 176.614 234.763 176.322 235.268 176.138C235.772 175.954 236.311 175.883 236.846 175.93L240.727 168.495L245.826 169.748L240.198 180.171C240.06 181.064 239.599 181.874 238.902 182.45C238.205 183.026 237.321 183.326 236.418 183.294C235.514 183.262 234.654 182.9 233.999 182.277C233.345 181.654 232.942 180.813 232.867 179.913H232.867Z" fill="#FFB7B7"/>
<path d="M256.029 252.349L251.726 252.348L249.679 235.772L256.029 235.773L256.029 252.349Z" fill="#FFB7B7"/>
<path d="M257.126 256.514L243.252 256.514V256.339C243.252 254.908 243.821 253.536 244.834 252.525C245.846 251.514 247.22 250.945 248.652 250.945H248.652L257.126 250.946L257.126 256.514Z" fill="#2F2E41"/>
<path d="M290.635 249.139L286.483 250.269L280.142 234.815L286.269 233.146L290.635 249.139Z" fill="#FFB7B7"/>
<path d="M292.791 252.869L279.406 256.514L279.36 256.345C278.983 254.965 279.171 253.492 279.881 252.25C280.592 251.008 281.767 250.099 283.149 249.723L283.149 249.723L291.325 247.496L292.791 252.869Z" fill="#2F2E41"/>
<path d="M248.173 180.745L246.026 213.298L250.637 249.821L258.189 247.519L258.507 214.886L264.549 196.068L282.435 246.328L290.623 243.311L283.866 210.678L280.05 180.03L248.173 180.745Z" fill="#2F2E41"/>
<path d="M269.04 123.581L256.322 125.454L251.741 129.979L250.318 146.24L251.202 160.643L247.519 186.041C247.519 186.041 256.78 180.906 263.958 187.335C271.136 193.763 281.179 188.471 281.386 184.194L269.04 123.581Z" fill="#CBCBCB"/>
<path d="M262.582 143.974L262.582 143.956L268.9 123.388L268.981 123.383C269.431 123.353 280.023 122.73 282.392 127.953L282.404 127.979L281.684 149.353L282.675 182.828L263.085 187.066L262.943 187.097L262.582 143.974Z" fill="#2F2E41"/>
<path d="M255.58 142.552L256.739 125.116C248.497 125.628 248.621 131.465 248.631 131.72L248.54 157.8L246.89 185.702L252.892 185.253L255.58 142.552Z" fill="#2F2E41"/>
<path d="M236.994 174.279L244.312 157.316L249.42 147.948L252.086 164.847L242.828 178.718L236.994 174.279Z" fill="#2F2E41"/>
<path d="M267.238 168.038C267.35 167.513 267.576 167.019 267.899 166.591C268.223 166.163 268.637 165.811 269.111 165.56C269.586 165.309 270.11 165.165 270.646 165.138C271.183 165.111 271.719 165.202 272.216 165.405L278.12 159.443L282.622 162.143L274.166 170.445C273.771 171.257 273.091 171.896 272.255 172.24C271.419 172.585 270.486 172.612 269.632 172.315C268.777 172.018 268.062 171.419 267.621 170.63C267.18 169.842 267.043 168.92 267.238 168.038Z" fill="#FFB7B7"/>
<path d="M272.202 163.228L284.239 150.04L276.271 138.684L277.092 133.132L281.788 127.338L281.879 127.456C282.38 128.103 294.143 143.367 294.48 149.145C294.819 154.945 277.912 169.615 277.192 170.237L277.092 170.323L272.202 163.228Z" fill="#2F2E41"/>
<path d="M261.702 122.152C266.427 122.152 270.257 118.327 270.257 113.607C270.257 108.888 266.427 105.062 261.702 105.062C256.977 105.062 253.146 108.888 253.146 113.607C253.146 118.327 256.977 122.152 261.702 122.152Z" fill="#FFB7B7"/>
<path d="M269.748 106.776L270.163 105.942L268.076 104.907C268.076 104.907 265.774 101.165 261.608 102.217C257.442 103.268 255.567 103.897 255.567 103.897L253.485 104.944L254.53 105.982L252.656 106.611L253.908 107.232L252.451 108.069L253.235 112.357C253.235 112.357 254.538 109.104 257.043 110.347C259.547 111.59 264.128 109.705 264.128 109.705L268.107 117.397C268.107 117.397 268.928 114.701 270.392 115.42C270.392 115.42 274.132 109.471 269.748 106.776Z" fill="#2F2E41"/>
<path d="M172.943 155.154L42.8417 190.99L0 35.8362L130.101 0L172.943 155.154Z" fill="white"/>
<path d="M172.943 155.154L42.8417 190.99L0 35.8362L130.101 0L172.943 155.154ZM44.5039 188.065L170.015 153.493L128.439 2.92457L2.92818 37.4963L44.5039 188.065Z" fill="#F1F1F1"/>
<path d="M101.788 69.5063L69.1757 78.4893C68.7157 78.6155 68.2243 78.5542 67.8094 78.319C67.3945 78.0838 67.09 77.6938 66.9626 77.2346L57.9686 44.6622C57.8423 44.2027 57.9036 43.7119 58.1391 43.2975C58.3746 42.8831 58.7651 42.579 59.2249 42.4518L91.8372 33.4688C92.2973 33.3426 92.7886 33.4039 93.2035 33.6391C93.6184 33.8743 93.923 34.2643 94.0503 34.7235L103.044 67.2959C103.171 67.7554 103.109 68.2462 102.874 68.6606C102.638 69.0749 102.248 69.3791 101.788 69.5063ZM59.4162 43.1448C59.1404 43.2211 58.9061 43.4036 58.7647 43.6523C58.6234 43.9009 58.5866 44.1954 58.6624 44.4711L67.6565 77.0435C67.7329 77.319 67.9156 77.553 68.1645 77.6941C68.4135 77.8353 68.7083 77.872 68.9843 77.7963L101.597 68.8133C101.873 68.737 102.107 68.5545 102.248 68.3059C102.389 68.0572 102.426 67.7628 102.35 67.4871L93.3564 34.9147C93.28 34.6392 93.0973 34.4051 92.8483 34.264C92.5994 34.1229 92.3046 34.0861 92.0285 34.1618L59.4162 43.1448Z" fill="#E5E5E5"/>
<path d="M131.301 80.5181L40.293 105.586L41.2629 109.099L132.271 84.0307L131.301 80.5181Z" fill="#F1F1F1"/>
<path d="M133.83 89.6764L42.8213 114.745L43.7912 118.257L134.8 93.189L133.83 89.6764Z" fill="#F1F1F1"/>
<path d="M136.359 98.8348L45.3506 123.903L46.3205 127.415L137.329 102.347L136.359 98.8348Z" fill="#F1F1F1"/>
<path d="M140.81 114.953L49.8018 140.022L50.7717 143.534L141.78 118.466L140.81 114.953Z" fill="#F1F1F1"/>
<path d="M143.338 124.112L52.3301 149.18L53.3 152.693L144.308 127.624L143.338 124.112Z" fill="#F1F1F1"/>
<path d="M145.867 133.27L54.8584 158.338L55.8283 161.851L146.837 136.783L145.867 133.27Z" fill="#F1F1F1"/>
<path d="M214.589 190.471H79.6309V29.5256H214.589V190.471Z" fill="white"/>
<path d="M214.589 190.471H79.6309V29.5256H214.589V190.471ZM82.0117 188.094H212.208V31.9036H82.0117V188.094Z" fill="#E5E5E5"/>
<path d="M190.018 98.7142H112.856V102.358H190.018V98.7142Z" fill="#6C63FF"/>
<path d="M190.018 108.188H112.856V111.832H190.018V108.188Z" fill="#6C63FF"/>
<path d="M190.018 117.661H112.856V121.305H190.018V117.661Z" fill="#6C63FF"/>
<path d="M106.584 103.448C107.899 103.448 108.965 102.383 108.965 101.07C108.965 99.7567 107.899 98.692 106.584 98.692C105.269 98.692 104.203 99.7567 104.203 101.07C104.203 102.383 105.269 103.448 106.584 103.448Z" fill="#6C63FF"/>
<path d="M190.018 57.8926H112.856V61.5363H190.018V57.8926Z" fill="#E5E5E5"/>
<path d="M190.018 67.3662H112.856V71.0099H190.018V67.3662Z" fill="#E5E5E5"/>
<path d="M190.018 76.8398H112.856V80.4835H190.018V76.8398Z" fill="#E5E5E5"/>
<path d="M106.584 62.2298C107.899 62.2298 108.965 61.1651 108.965 59.8518C108.965 58.5385 107.899 57.4739 106.584 57.4739C105.269 57.4739 104.203 58.5385 104.203 59.8518C104.203 61.1651 105.269 62.2298 106.584 62.2298Z" fill="#E5E5E5"/>
<path d="M190.018 139.932H112.856V143.576H190.018V139.932Z" fill="#E5E5E5"/>
<path d="M190.018 149.406H112.856V153.05H190.018V149.406Z" fill="#E5E5E5"/>
<path d="M190.018 158.88H112.856V162.523H190.018V158.88Z" fill="#E5E5E5"/>
<path d="M106.584 144.27C107.899 144.27 108.965 143.205 108.965 141.892C108.965 140.578 107.899 139.514 106.584 139.514C105.269 139.514 104.203 140.578 104.203 141.892C104.203 143.205 105.269 144.27 106.584 144.27Z" fill="#E5E5E5"/>
<path d="M208.289 204.331C223.523 204.331 235.873 191.996 235.873 176.78C235.873 161.564 223.523 149.229 208.289 149.229C193.054 149.229 180.704 161.564 180.704 176.78C180.704 191.996 193.054 204.331 208.289 204.331Z" fill="#6C63FF"/>
<path d="M215.931 175.022V169.751C215.931 168.748 215.734 167.755 215.35 166.828C214.967 165.901 214.404 165.059 213.694 164.35C212.984 163.64 212.142 163.078 211.214 162.694C210.286 162.31 209.292 162.112 208.288 162.112C207.284 162.112 206.29 162.31 205.362 162.694C204.435 163.078 203.592 163.64 202.882 164.35C202.172 165.059 201.609 165.901 201.226 166.828C200.842 167.755 200.645 168.748 200.646 169.751V175.022C199.624 175.068 198.659 175.506 197.953 176.244C197.246 176.982 196.851 177.964 196.851 178.985V191.442H219.726V178.985C219.725 177.964 219.33 176.982 218.624 176.244C217.917 175.506 216.952 175.068 215.931 175.022ZM208.288 164.805C209.601 164.807 210.859 165.328 211.788 166.255C212.716 167.183 213.238 168.44 213.239 169.751V175.013H203.337V169.751C203.338 168.44 203.86 167.183 204.789 166.255C205.717 165.328 206.975 164.807 208.288 164.805Z" fill="white"/>
<path d="M210.345 181.174C210.345 180.82 210.253 180.472 210.079 180.164C209.905 179.855 209.653 179.597 209.35 179.414C209.046 179.232 208.7 179.13 208.346 179.121C207.992 179.111 207.641 179.192 207.327 179.358C207.014 179.524 206.749 179.767 206.557 180.065C206.366 180.363 206.255 180.706 206.236 181.06C206.216 181.413 206.288 181.766 206.445 182.083C206.602 182.401 206.839 182.672 207.132 182.871V187.335H209.445V182.871C209.722 182.683 209.949 182.43 210.106 182.134C210.263 181.839 210.345 181.509 210.345 181.174Z" fill="#6C63FF"/>
<path d="M349.597 256.836H195.706C195.599 256.836 195.496 256.794 195.42 256.718C195.344 256.642 195.302 256.54 195.302 256.433C195.302 256.326 195.344 256.223 195.42 256.147C195.496 256.072 195.599 256.029 195.706 256.029H349.597C349.704 256.029 349.806 256.072 349.882 256.147C349.958 256.223 350 256.326 350 256.433C350 256.54 349.958 256.642 349.882 256.718C349.806 256.794 349.704 256.836 349.597 256.836Z" fill="#CBCBCB"/>
</g>
<defs>
<clipPath id="clip0">
<rect width="350" height="257" fill="white"/>
</clipPath>
</defs>
</svg>
