<svg width="60" height="60" viewBox="0 0 60 60" fill="none" xmlns="http://www.w3.org/2000/svg">
<path d="M54.8876 60L34.2392 39.3492C25.0537 45.8792 12.3965 44.282 5.12145 35.6748C-2.15358 27.0676 -1.6194 14.3219 6.35034 6.35357C14.318 -1.61826 27.0657 -2.15472 35.675 5.1195C44.2843 12.3937 45.8826 25.0514 39.3516 34.2371L60 54.8879L54.8912 59.9964L54.8876 60ZM21.6767 7.22782C14.8254 7.22628 8.91446 12.0353 7.52267 18.7434C6.13088 25.4515 9.64075 32.215 15.9273 34.9389C22.2138 37.6628 29.5491 35.5986 33.4922 29.9959C37.4352 24.3933 36.9022 16.7921 32.2159 11.7944L34.4018 13.9621L31.9377 11.5054L31.8944 11.4621C29.1911 8.74227 25.5116 7.21749 21.6767 7.22782Z" fill="#2E3A59"/>
</svg>
